<svg width="161" height="38" viewBox="0 0 161 38" fill="none" xmlns="http://www.w3.org/2000/svg">
<g clip-path="url(#clip0_10_8)">
<path d="M45.16 22.17V18.84H50.05C50.69 18.84 51.27 18.71 51.79 18.45C52.31 18.19 52.72 17.82 53.02 17.34C53.32 16.84 53.47 16.24 53.47 15.54C53.47 14.86 53.32 14.27 53.02 13.77C52.72 13.27 52.31 12.89 51.79 12.63C51.27 12.37 50.69 12.24 50.05 12.24H45.16V8.91001H50.47C51.81 8.91001 53.01 9.18001 54.07 9.72001C55.15 10.26 56 11.03 56.62 12.03C57.24 13.01 57.55 14.18 57.55 15.54C57.55 16.9 57.24 18.08 56.62 19.08C56 20.06 55.15 20.82 54.07 21.36C53.01 21.9 51.81 22.17 50.47 22.17H45.16ZM42.16 30V8.91001H46.24V30H42.16ZM60.2263 30V15.51H64.1563V30H60.2263ZM64.1563 21.99L62.6263 20.97C62.8063 19.19 63.3263 17.79 64.1863 16.77C65.0463 15.73 66.2863 15.21 67.9063 15.21C68.6063 15.21 69.2363 15.33 69.7963 15.57C70.3563 15.79 70.8663 16.16 71.3263 16.68L68.8663 19.5C68.6463 19.26 68.3763 19.08 68.0563 18.96C67.7563 18.84 67.4063 18.78 67.0063 18.78C66.1663 18.78 65.4763 19.05 64.9363 19.59C64.4163 20.11 64.1563 20.91 64.1563 21.99ZM79.1066 30.3C77.6466 30.3 76.3266 29.97 75.1466 29.31C73.9866 28.63 73.0566 27.72 72.3566 26.58C71.6766 25.42 71.3366 24.13 71.3366 22.71C71.3366 21.29 71.6766 20.02 72.3566 18.9C73.0366 17.76 73.9666 16.86 75.1466 16.2C76.3266 15.52 77.6366 15.18 79.0766 15.18C80.5566 15.18 81.8766 15.52 83.0366 16.2C84.2166 16.86 85.1466 17.76 85.8266 18.9C86.5066 20.02 86.8466 21.29 86.8466 22.71C86.8466 24.13 86.5066 25.42 85.8266 26.58C85.1466 27.72 84.2166 28.63 83.0366 29.31C81.8766 29.97 80.5666 30.3 79.1066 30.3ZM79.0766 26.64C79.8166 26.64 80.4666 26.48 81.0266 26.16C81.6066 25.82 82.0466 25.36 82.3466 24.78C82.6666 24.18 82.8266 23.5 82.8266 22.74C82.8266 21.98 82.6666 21.31 82.3466 20.73C82.0266 20.15 81.5866 19.7 81.0266 19.38C80.4666 19.04 79.8166 18.87 79.0766 18.87C78.3566 18.87 77.7166 19.04 77.1566 19.38C76.5966 19.7 76.1566 20.15 75.8366 20.73C75.5166 21.31 75.3566 21.98 75.3566 22.74C75.3566 23.5 75.5166 24.18 75.8366 24.78C76.1566 25.36 76.5966 25.82 77.1566 26.16C77.7166 26.48 78.3566 26.64 79.0766 26.64ZM89.3767 30V15.51H93.3067V30H89.3767ZM98.8267 30V21.45C98.8267 20.61 98.5567 19.96 98.0167 19.5C97.4967 19.02 96.8467 18.78 96.0667 18.78C95.5467 18.78 95.0767 18.89 94.6567 19.11C94.2367 19.31 93.9067 19.61 93.6667 20.01C93.4267 20.41 93.3067 20.89 93.3067 21.45L91.7767 20.7C91.7767 19.58 92.0167 18.61 92.4967 17.79C92.9967 16.97 93.6667 16.34 94.5067 15.9C95.3467 15.44 96.2967 15.21 97.3567 15.21C98.3567 15.21 99.2667 15.44 100.087 15.9C100.907 16.34 101.557 16.97 102.037 17.79C102.517 18.59 102.757 19.56 102.757 20.7V30H98.8267ZM108.277 30V21.45C108.277 20.61 108.007 19.96 107.467 19.5C106.947 19.02 106.297 18.78 105.517 18.78C105.017 18.78 104.547 18.89 104.107 19.11C103.687 19.31 103.357 19.61 103.117 20.01C102.877 20.41 102.757 20.89 102.757 21.45L100.507 20.91C100.587 19.75 100.897 18.75 101.437 17.91C101.977 17.05 102.687 16.39 103.567 15.93C104.447 15.45 105.427 15.21 106.507 15.21C107.587 15.21 108.557 15.44 109.417 15.9C110.277 16.34 110.957 16.98 111.457 17.82C111.957 18.66 112.207 19.66 112.207 20.82V30H108.277ZM117.347 30V9.48001H121.277V30H117.347ZM113.957 18.96V15.51H124.667V18.96H113.957ZM126.877 30V15.51H130.837V30H126.877ZM128.857 13.17C128.217 13.17 127.687 12.96 127.267 12.54C126.847 12.1 126.637 11.56 126.637 10.92C126.637 10.3 126.847 9.77001 127.267 9.33001C127.687 8.89001 128.217 8.67001 128.857 8.67001C129.517 8.67001 130.047 8.89001 130.447 9.33001C130.867 9.77001 131.077 10.3 131.077 10.92C131.077 11.56 130.867 12.1 130.447 12.54C130.047 12.96 129.517 13.17 128.857 13.17ZM136.238 30V13.95C136.238 12.79 136.488 11.77 136.988 10.89C137.488 9.99001 138.198 9.28001 139.118 8.76001C140.038 8.24001 141.118 7.98001 142.358 7.98001C143.298 7.98001 144.108 8.14001 144.788 8.46001C145.468 8.78001 146.078 9.22001 146.618 9.78001L144.128 12.3C143.908 12.08 143.668 11.91 143.408 11.79C143.148 11.67 142.818 11.61 142.418 11.61C141.698 11.61 141.138 11.81 140.738 12.21C140.358 12.59 140.168 13.14 140.168 13.86V30H136.238ZM132.878 18.96V15.51H144.458V18.96H132.878ZM151.095 30.12L145.035 15.51H149.295L153.315 26.67H151.875L156.045 15.51H160.335L153.885 30.12H151.095ZM147.075 36.06L151.485 26.73L153.885 30.12L151.245 36.06H147.075Z" fill="black"/>
<path fill-rule="evenodd" clip-rule="evenodd" d="M0 17.7778C0 11.2829 -2.38419e-07 8.03542 2.0177 6.0177C4.03542 4 7.28286 4 13.7778 4H17.2222C23.7171 4 26.9647 4 28.9822 6.0177C31 8.03542 31 11.2829 31 17.7778V21.2222C31 27.7171 31 30.9647 28.9822 32.9822C26.9647 35 23.7171 35 17.2222 35H13.7778C7.28286 35 4.03542 35 2.0177 32.9822C-2.38419e-07 30.9647 0 27.7171 0 21.2222V17.7778ZM25.8333 11.75C25.8333 13.1767 24.6767 14.3333 23.25 14.3333C21.8233 14.3333 20.6667 13.1767 20.6667 11.75C20.6667 10.3233 21.8233 9.16667 23.25 9.16667C24.6767 9.16667 25.8333 10.3233 25.8333 11.75ZM18.9444 21.2222C18.9444 23.1246 17.4024 24.6667 15.5 24.6667C13.5976 24.6667 12.0556 23.1246 12.0556 21.2222C12.0556 19.3199 13.5976 17.7778 15.5 17.7778C17.4024 17.7778 18.9444 19.3199 18.9444 21.2222ZM22.3889 21.2222C22.3889 25.0268 19.3046 28.1111 15.5 28.1111C11.6954 28.1111 8.61111 25.0268 8.61111 21.2222C8.61111 17.4177 11.6954 14.3333 15.5 14.3333C19.3046 14.3333 22.3889 17.4177 22.3889 21.2222Z" fill="#007AFF"/>
</g>
<defs>
<clipPath id="clip0_10_8">
<rect width="161" height="38" fill="white"/>
</clipPath>
</defs>
</svg>
